# Blender v2.79 (sub 0) OBJ File: ''
# www.blender.org
mtllib door_new_b.mtl
o Cube
v -0.499000 -0.499000 -0.375000
v -0.499000 -0.499000 -0.499000
v 0.499000 -0.499000 -0.499000
v 0.499000 -0.499000 -0.375000
v -0.499000 1.499000 -0.375000
v -0.499000 1.499000 -0.499000
v 0.499000 1.499000 -0.375000
v 0.499000 1.499000 -0.499000
v 0.311875 0.687312 -0.375000
v 0.311875 0.687312 -0.499000
v -0.311875 0.687312 -0.499000
v -0.311875 0.687312 -0.375000
v 0.311875 0.937062 -0.375000
v -0.311875 0.937062 -0.375000
v -0.311875 0.937062 -0.499000
v 0.311875 0.937062 -0.499000
v -0.062375 1.311687 -0.499000
v -0.062375 0.687312 -0.499000
v -0.062375 0.687312 -0.375000
v -0.062375 1.311687 -0.375000
v -0.311875 1.311687 -0.499000
v -0.311875 1.311687 -0.375000
v 0.311875 1.061937 -0.375000
v 0.311875 1.061937 -0.499000
v -0.311875 1.061937 -0.499000
v -0.311875 1.061937 -0.375000
v 0.311875 1.311687 -0.499000
v 0.311875 1.311687 -0.375000
v 0.062375 0.687312 -0.499000
v 0.062375 1.311687 -0.499000
v 0.062375 1.311687 -0.375000
v 0.062375 0.687312 -0.375000
v -0.311875 1.311687 -0.375000
v -0.311875 1.311687 -0.499000
vt 0.894737 0.500000
vt 0.842105 0.500000
vt 0.842105 1.000000
vt 0.894737 1.000000
vt 0.947368 1.000000
vt 1.000000 1.000000
vt 1.000000 0.000000
vt 0.947368 0.000000
vt 0.894737 0.500000
vt 0.894737 0.000000
vt 0.842105 0.000000
vt 0.842105 0.500000
vt 0.894737 0.687500
vt 0.947368 0.687500
vt 0.947368 0.375000
vt 0.894737 0.375000
vt 1.000000 0.375000
vt 1.000000 0.062500
vt 0.947368 0.062500
vt 0.947368 0.375000
vt 1.000000 0.687500
vt 1.000000 0.375000
vt 0.947368 0.375000
vt 0.947368 0.687500
vt 0.894737 0.687500
vt 0.894737 1.000000
vt 0.947368 1.000000
vt 0.947368 0.687500
vt 0.947368 0.687500
vt 1.000000 0.687500
vt 1.000000 0.375000
vt 0.947368 0.375000
vt 0.894737 0.375000
vt 0.894737 0.062500
vt 0.842105 0.062500
vt 0.842105 0.375000
vt 0.947368 0.687500
vt 0.947368 1.000000
vt 1.000000 1.000000
vt 1.000000 0.687500
vt 0.947368 1.000000
vt 0.947368 0.687500
vt 0.894737 0.687500
vt 0.894737 1.000000
vt 0.842105 0.000000
vt 0.842105 1.000000
vt 0.421053 1.000000
vt 0.421053 0.000000
vt 0.421053 1.000000
vt 0.000000 1.000000
vt 0.000000 0.000000
vt 0.421053 0.000000
vt 0.894737 0.000000
vt 0.894737 1.000000
vt 0.947368 1.000000
vt 0.947368 0.000000
vn 0.0000 -1.0000 0.0000
vn -1.0000 0.0000 0.0000
vn 0.0000 1.0000 0.0000
vn 1.0000 -0.0000 0.0000
vn 0.0000 -0.0000 1.0000
vn 0.0000 0.0000 -1.0000
usemtl None.002
s 1
f 1/1/1 2/2/1 3/3/1 4/4/1
f 5/5/2 6/6/2 2/7/2 1/8/2
f 5/9/3 7/10/3 8/11/3 6/12/3
f 9/13/3 10/14/3 11/15/3 12/16/3
f 13/17/1 14/18/1 15/19/1 16/20/1
f 17/21/2 18/22/2 19/23/2 20/24/2
f 11/25/4 21/26/4 22/27/4 12/28/4
f 23/29/3 24/30/3 25/31/3 26/32/3
f 27/33/2 10/34/2 9/35/2 28/36/2
f 29/37/4 30/38/4 31/39/4 32/40/4
f 28/41/1 33/42/1 34/43/1 27/44/1
f 4/45/5 7/46/5 5/47/5 1/48/5
f 6/49/6 8/50/6 3/51/6 2/52/6
f 3/53/4 8/54/4 7/55/4 4/56/4
